{
  "accessors": [
    {
      "bufferView": 2,
      "componentType": 5126,
      "count": 1306,
      "max": [
        19.75119972229004,
        11.36998462677002,
        6.992560863494873
      ],
      "min": [
        -19.634199142456055,
        5.960464477539063e-08,
        -6.6266584396362305
      ],
      "type": "VEC3"
    },
    {
      "bufferView": 2,
      "byteOffset": 15672,
      "componentType": 5126,
      "count": 1306,
      "max": [
        1.0,
        1.0,
        1.0
      ],
      "min": [
        -1.0,
        -1.0,
        -1.0
      ],
      "type": "VEC3"
    },
    {
      "bufferView": 3,
      "componentType": 5126,
      "count": 1306,
      "max": [
        1.0,
        1.0,
        1.0,
        1.0
      ],
      "min": [
        -1.0,
        -1.0,
        -0.9999057650566101,
        -1.0
      ],
      "type": "VEC4"
    },
    {
      "bufferView": 1,
      "componentType": 5126,
      "count": 1306,
      "max": [
        0.9959394335746765,
        0.9955241680145264
      ],
      "min": [
        0.0044744014739990234,
        0.0044804648496210575
      ],
      "type": "VEC2"
    },
    {
      "bufferView": 1,
      "byteOffset": 10448,
      "componentType": 5126,
      "count": 1306,
      "max": [
        0.9959394335746765,
        0.9955241680145264
      ],
      "min": [
        0.0044744014739990234,
        0.0044804648496210575
      ],
      "type": "VEC2"
    },
    {
      "bufferView": 1,
      "byteOffset": 20896,
      "componentType": 5126,
      "count": 1306,
      "max": [
        0.9959394335746765,
        0.9955241680145264
      ],
      "min": [
        0.0044744014739990234,
        0.0044804648496210575
      ],
      "type": "VEC2"
    },
    {
      "bufferView": 1,
      "byteOffset": 31344,
      "componentType": 5126,
      "count": 1306,
      "max": [
        0.9959394335746765,
        0.9955241680145264
      ],
      "min": [
        0.0044744014739990234,
        0.0044804648496210575
      ],
      "type": "VEC2"
    },
    {
      "bufferView": 0,
      "componentType": 5125,
      "count": 5358,
      "type": "SCALAR"
    }
  ],
  "asset": {
    "extras": {
      "author": "Riejoncer (https://sketchfab.com/Riejoncer)",
      "license": "CC-BY-4.0 (http://creativecommons.org/licenses/by/4.0/)",
      "source": "https://sketchfab.com/3d-models/low-poly-modern-sofa-free-model-4e112795595d40fcbfb5d369bb3b2105",
      "title": "Low poly modern sofa (Free model)"
    },
    "generator": "Sketchfab-14.32.1",
    "version": "2.0"
  },
  "bufferViews": [
    {
      "buffer": 0,
      "byteLength": 21432,
      "name": "floatBufferViews",
      "target": 34963
    },
    {
      "buffer": 0,
      "byteLength": 41792,
      "byteOffset": 21432,
      "byteStride": 8,
      "name": "floatBufferViews",
      "target": 34962
    },
    {
      "buffer": 0,
      "byteLength": 31344,
      "byteOffset": 63224,
      "byteStride": 12,
      "name": "floatBufferViews",
      "target": 34962
    },
    {
      "buffer": 0,
      "byteLength": 20896,
      "byteOffset": 94568,
      "byteStride": 16,
      "name": "floatBufferViews",
      "target": 34962
    }
  ],
  "buffers": [
    {
      "byteLength": 115464,
      "uri": "scene.bin"
    }
  ],
  "images": [
    {
      "uri": "textures/Sofa_baseColor.png"
    },
    {
      "uri": "textures/Sofa_metallicRoughness.png"
    },
    {
      "uri": "textures/Sofa_normal.png"
    }
  ],
  "materials": [
    {
      "name": "Sofa",
      "normalTexture": {
        "index": 2
      },
      "pbrMetallicRoughness": {
        "baseColorTexture": {
          "index": 0
        },
        "metallicFactor": 0.0,
        "metallicRoughnessTexture": {
          "index": 1
        }
      }
    }
  ],
  "meshes": [
    {
      "name": "Object_0",
      "primitives": [
        {
          "attributes": {
            "NORMAL": 1,
            "POSITION": 0,
            "TANGENT": 2,
            "TEXCOORD_0": 3,
            "TEXCOORD_1": 4,
            "TEXCOORD_2": 5,
            "TEXCOORD_3": 6
          },
          "indices": 7,
          "material": 0,
          "mode": 4
        }
      ]
    }
  ],
  "nodes": [
    {
      "children": [
        1
      ],
      "matrix": [
        0.07692307978868484,
        0.0,
        0.0,
        0.0,
        0.0,
        1.7080354861295187e-17,
        -0.07692307978868484,
        0.0,
        0.0,
        0.07692307978868484,
        1.7080354861295187e-17,
        0.0,
        0.0,
        0.0,
        0.0,
        1.0
      ],
      "name": "Sketchfab_model"
    },
    {
      "children": [
        2
      ],
      "name": "root"
    },
    {
      "children": [
        3
      ],
      "matrix": [
        1.0,
        0.0,
        0.0,
        0.0,
        0.0,
        2.220446049250313e-16,
        1.0,
        0.0,
        0.0,
        -1.0,
        2.220446049250313e-16,
        0.0,
        0.0,
        0.0,
        0.0,
        1.0
      ],
      "name": "GLTF_SceneRootNode"
    },
    {
      "children": [
        4
      ],
      "name": "Sofa_0"
    },
    {
      "mesh": 0,
      "name": "Object_4"
    }
  ],
  "samplers": [
    {
      "magFilter": 9729,
      "minFilter": 9987,
      "wrapS": 33071,
      "wrapT": 33071
    },
    {
      "magFilter": 9729,
      "minFilter": 9987,
      "wrapS": 10497,
      "wrapT": 10497
    }
  ],
  "scene": 0,
  "scenes": [
    {
      "name": "Sketchfab_Scene",
      "nodes": [
        0
      ]
    }
  ],
  "textures": [
    {
      "sampler": 0,
      "source": 0
    },
    {
      "sampler": 0,
      "source": 1
    },
    {
      "sampler": 1,
      "source": 2
    }
  ]
}
